<?xml version="1.0" standalone="no"?><!DOCTYPE svg PUBLIC "-//W3C//DTD SVG 1.1//EN" "http://www.w3.org/Graphics/SVG/1.1/DTD/svg11.dtd"><svg t="1659378336097" class="icon" viewBox="0 0 1024 1024" version="1.1" xmlns="http://www.w3.org/2000/svg" p-id="11349" xmlns:xlink="http://www.w3.org/1999/xlink" width="200" height="200"><defs><style type="text/css"></style></defs><path d="M512.182857 849.481143c302.738286 0 511.817143-244.662857 511.817143-321.097143 0-76.818286-209.444571-321.097143-511.817143-321.097143C213.577143 207.268571 0 451.547429 0 528.365714c0 76.434286 213.193143 321.097143 512.182857 321.097143z m0-59.209143c-246.528 0-446.610286-209.078857-446.610286-261.906286 0-44.580571 200.082286-261.888 446.610286-261.888 245.796571 0 446.244571 217.307429 446.244572 261.888 0 52.845714-200.448 261.906286-446.244572 261.906286z m0-52.077714c116.534857 0 210.194286-95.542857 210.194286-209.828572 0-117.266286-93.659429-209.810286-210.194286-209.810285-117.266286 0-211.309714 92.525714-210.56 209.810285 0.365714 114.285714 93.293714 209.828571 210.56 209.828572z m0-140.123429c-38.948571 0-70.436571-31.488-70.436571-69.705143 0-38.582857 31.469714-69.668571 70.436571-69.668571 38.582857 0 70.070857 31.085714 70.070857 69.668571 0 38.217143-31.469714 69.705143-70.070857 69.705143z" p-id="11350"></path></svg>