<?xml version="1.0" standalone="no"?><!DOCTYPE svg PUBLIC "-//W3C//DTD SVG 1.1//EN" "http://www.w3.org/Graphics/SVG/1.1/DTD/svg11.dtd"><svg t="1659378372918" class="icon" viewBox="0 0 1024 1024" version="1.1" xmlns="http://www.w3.org/2000/svg" p-id="11497" xmlns:xlink="http://www.w3.org/1999/xlink" width="200" height="200"><defs><style type="text/css"></style></defs><path d="M799.488 863.104c5.540571 5.540571 13.293714 8.502857 20.297143 8.502857 14.774857 0 28.434286-13.293714 28.434286-28.434286 0-7.387429-2.925714-14.774857-8.484572-20.297142L221.933714 205.403429a28.452571 28.452571 0 0 0-20.297143-8.118858c-14.774857 0-28.452571 13.293714-28.452571 28.068572 0 7.753143 2.596571 15.140571 8.137143 20.297143zM512.182857 226.468571c-64.256 0-122.221714 11.081143-176.512 29.184l48.384 48.365715c40.978286-12.178286 82.340571-19.2 128.128-19.2 250.368 0 447.195429 214.180571 447.195429 258.121143 0 29.915429-64.621714 110.427429-166.912 173.202285l45.421714 45.421715C954.587429 685.860571 1024 586.514286 1024 542.939429c0-75.702857-206.061714-316.452571-511.817143-316.452572z m0 632.941715c68.681143 0 131.474286-12.178286 188.708572-31.744l-48.384-48.384c-43.940571 13.659429-90.477714 21.796571-140.324572 21.796571-250.368 0-447.561143-206.061714-447.561143-258.121143 0-25.856 68.681143-111.908571 177.261715-177.261714l-45.805715-45.787429C73.142857 395.977143 0 498.267429 0 542.939429 0 618.294857 210.102857 859.428571 512.182857 859.428571z m189.44-235.593143c11.446857-24.740571 17.737143-52.443429 17.737143-80.877714 0-115.565714-92.342857-206.793143-207.177143-206.793143-29.165714 0-56.502857 6.290286-81.243428 17.005714z m-189.44 125.933714c32.493714 0 63.140571-8.137143 90.477714-21.430857L326.070857 451.364571c-14.025143 27.337143-21.412571 58.349714-21.412571 91.574858 0 112.64 91.940571 206.811429 207.542857 206.811428z" p-id="11498"></path></svg>